<?xml version="1.0" encoding="utf-8"?>
<!-- Generator: Adobe Illustrator 22.0.1, SVG Export Plug-In . SVG Version: 6.00 Build 0)  -->
<svg version="1.1" id="Calque_1" xmlns="http://www.w3.org/2000/svg" xmlns:xlink="http://www.w3.org/1999/xlink" x="0px" y="0px"
	 viewBox="0 0 304.9 116" style="enable-background:new 0 0 304.9 116;" xml:space="preserve">
<style type="text/css">
	.st0{fill:#E74E96;}
	.st1{clip-path:url(#SVGID_2_);fill:#E74E96;}
</style>
<polygon class="st0" points="62.4,114.7 62.4,1.4 111,1.4 111,18.5 79.5,18.5 79.5,49.4 102.5,49.4 102.5,66.6 79.5,66.6 79.5,97.5 
	111,97.5 111,114.7 "/>
<polygon class="st0" points="150.6,27.4 134.6,114.7 118.3,114.7 139,1.5 162.4,1.5 182.8,114.7 164.9,114.7 "/>
<polygon class="st0" points="207.2,78.7 207.2,114.7 190.1,114.7 190.1,1.4 207.2,1.4 207.2,41.7 228,1.4 246.3,1.4 222.9,47.6 
	250.3,114.7 230.2,114.7 212.3,68.7 "/>
<g>
	<defs>
		<rect id="SVGID_1_" y="0" width="304.9" height="116"/>
	</defs>
	<clipPath id="SVGID_2_">
		<use xlink:href="#SVGID_1_"  style="overflow:visible;"/>
	</clipPath>
	<path class="st1" d="M304.9,86.5c0.1,7.9-1.9,14.6-6.1,20.2c-2.8,3.8-6.7,6.5-11.7,8c-2.7,0.8-5.9,1.3-9.5,1.3
		c-6.7,0-12.2-1.7-16.6-5c-3.7-2.7-6.6-6.4-8.7-11.1c-2.1-4.7-3.4-10-3.8-16l16.3-1.2c0.7,6.6,2.5,11.4,5.2,14.3
		c2,2.2,4.4,3.3,7,3.2c3.7-0.1,6.7-2,8.9-5.5c1.1-1.7,1.7-4.2,1.7-7.5c0-4.7-2.1-9.4-6.4-14c-3.4-3.2-8.4-8-15.2-14.4
		c-5.7-5.5-9.7-10.4-12-14.7c-2.5-4.9-3.8-10.2-3.8-15.9c0-10.3,3.5-18.1,10.4-23.4c4.3-3.2,9.6-4.8,15.9-4.8
		c6.1,0,11.3,1.4,15.6,4.1c3.4,2.1,6.1,5.1,8.2,8.9c2.1,3.8,3.3,8.2,3.7,13.1l-16.4,3c-0.5-4.6-1.8-8.3-4-10.8
		c-1.6-1.9-3.8-2.8-6.8-2.8c-3.1,0-5.5,1.4-7.1,4.2c-1.3,2.2-2,5-2,8.3c0,5.2,2.2,10.5,6.7,15.8c1.7,2,4.2,4.5,7.6,7.2
		c4,3.3,6.6,5.6,7.9,7c4.2,4.2,7.5,8.4,9.8,12.5c1.1,1.9,2,3.7,2.6,5.3C304,79.7,304.8,83.3,304.9,86.5"/>
	<path class="st1" d="M37.1,28.8c0-3-0.9-5.3-2.7-7.1c-1.8-1.8-4.1-2.7-7.1-2.7H17.1v36.2h10.3c2.7,0,5-1,6.9-2.9
		c1.9-1.9,2.8-4.2,2.8-7V28.8z M26.9,1.5c8.3,0,14.9,2.6,19.9,7.9c4.6,5,6.9,11.4,6.9,19.2v16.4c0,7.5-2.6,13.9-7.8,19.2
		c-5.2,5.3-11.5,8-18.9,8h-9.8v42.6H0V1.5H26.9z"/>
</g>
<polyline class="st0" points="118,114.7 149.9,96.6 181.9,114.7 "/>
</svg>
